<svg xmlns="http://www.w3.org/2000/svg" xmlns:xlink="http://www.w3.org/1999/xlink" width="500" zoomAndPan="magnify" viewBox="0 0 375 374.999991" height="500" preserveAspectRatio="xMidYMid meet" version="1.0"><defs><clipPath id="f7e0b30029"><path d="M 38.484375 200.332031 L 258.566406 200.332031 L 258.566406 214 L 38.484375 214 Z M 38.484375 200.332031 " clip-rule="nonzero"/></clipPath><clipPath id="f2c9c93711"><path d="M 39.8125 200.386719 C 260.75 203.320312 260.75 207.890625 257.984375 210.710938 C 245.066406 223.574219 52.675781 223.574219 39.757812 210.597656 C 36.9375 207.835938 39.8125 200.386719 39.8125 200.386719 " clip-rule="nonzero"/></clipPath><clipPath id="e90f279e7a"><path d="M 0.484375 0.332031 L 220.566406 0.332031 L 220.566406 13 L 0.484375 13 Z M 0.484375 0.332031 " clip-rule="nonzero"/></clipPath><clipPath id="e946419704"><path d="M 1.8125 0.386719 C 222.75 3.320312 222.75 7.890625 219.984375 10.710938 C 207.066406 23.574219 14.675781 23.574219 1.757812 10.597656 C -1.0625 7.835938 1.8125 0.386719 1.8125 0.386719 " clip-rule="nonzero"/></clipPath><clipPath id="7dc4885f8a"><rect x="0" width="221" y="0" height="14"/></clipPath><clipPath id="caa37e1943"><path d="M 37.5 169 L 352 169 L 352 198 L 37.5 198 Z M 37.5 169 " clip-rule="nonzero"/></clipPath></defs><g clip-path="url(#f7e0b30029)"><g clip-path="url(#f2c9c93711)"><g transform="matrix(1, 0, 0, 1, 38, 200)"><g clip-path="url(#7dc4885f8a)"><g clip-path="url(#e90f279e7a)"><g clip-path="url(#e946419704)"><path fill="#ff0000" d="M -0.5 -1.871094 L 222.246094 -1.871094 L 222.246094 12.96875 L -0.5 12.96875 Z M -0.5 -1.871094 " fill-opacity="1" fill-rule="nonzero"/></g></g></g></g></g></g><g clip-path="url(#caa37e1943)"><path fill="#ffffff" d="M 48.28125 188.75 L 54.367188 188.75 C 58.792969 188.75 61.007812 187.027344 61.007812 183.582031 C 61.007812 180.136719 58.792969 178.410156 54.367188 178.410156 L 48.28125 178.410156 Z M 37.941406 169.664062 L 54.367188 169.664062 C 60.011719 169.664062 64.28125 170.894531 67.171875 173.363281 C 69.953125 175.722656 71.34375 179.128906 71.34375 183.582031 C 71.34375 188.035156 69.953125 191.441406 67.171875 193.800781 C 64.28125 196.265625 60.011719 197.5 54.367188 197.5 L 37.941406 197.5 Z M 83.675781 183.582031 C 83.675781 187.292969 86.191406 189.148438 91.230469 189.148438 C 96.265625 189.148438 98.785156 187.292969 98.785156 183.582031 C 98.785156 179.871094 96.265625 178.015625 91.230469 178.015625 C 86.191406 178.015625 83.675781 179.871094 83.675781 183.582031 Z M 77.828125 173.042969 C 80.902344 170.523438 85.371094 169.265625 91.230469 169.265625 C 97.089844 169.265625 101.554688 170.523438 104.632812 173.042969 C 107.625 175.507812 109.125 179.023438 109.125 183.582031 C 109.125 188.140625 107.625 191.652344 104.632812 194.121094 C 101.554688 196.636719 97.089844 197.898438 91.230469 197.898438 C 85.371094 197.898438 80.902344 196.636719 77.828125 194.121094 C 74.832031 191.652344 73.335938 188.140625 73.335938 183.582031 C 73.335938 179.023438 74.832031 175.507812 77.828125 173.042969 Z M 141.542969 169.664062 L 151.878906 169.664062 L 151.878906 197.5 L 141.542969 197.5 L 141.542969 184.773438 L 131.996094 196.703125 L 122.453125 184.773438 L 122.453125 197.5 L 112.113281 197.5 L 112.113281 169.664062 L 122.453125 169.664062 L 131.996094 181.59375 Z M 155.84375 197.5 L 155.84375 169.664062 L 166.179688 169.664062 L 166.179688 197.5 Z M 194.03125 169.664062 L 204.371094 169.664062 L 204.371094 197.5 L 192.441406 197.5 L 180.511719 182.585938 L 180.511719 197.5 L 170.171875 197.5 L 170.171875 169.664062 L 182.101562 169.664062 L 194.03125 184.574219 Z M 218.285156 169.664062 L 233.398438 169.664062 L 245.328125 197.5 L 234.589844 197.5 L 232.5625 192.726562 L 219.121094 192.726562 L 217.09375 197.5 L 206.355469 197.5 Z M 225.84375 177.101562 L 222.222656 185.570312 L 229.460938 185.570312 Z M 271.195312 169.664062 L 281.535156 169.664062 L 281.535156 197.5 L 269.605469 197.5 L 257.671875 182.585938 L 257.671875 197.5 L 247.335938 197.5 L 247.335938 169.664062 L 259.265625 169.664062 L 271.195312 184.574219 Z M 309.726562 185.171875 L 320.183594 185.171875 C 319.8125 189.226562 318.15625 192.34375 315.214844 194.515625 C 312.164062 196.769531 307.898438 197.898438 302.410156 197.898438 C 296.550781 197.898438 292.082031 196.636719 289.007812 194.121094 C 286.011719 191.652344 284.515625 188.140625 284.515625 183.582031 C 284.515625 179.023438 286.011719 175.507812 289.007812 173.042969 C 292.082031 170.523438 296.550781 169.265625 302.410156 169.265625 C 307.898438 169.265625 312.164062 170.390625 315.214844 172.644531 C 318.15625 174.820312 319.8125 177.933594 320.183594 181.992188 L 309.726562 181.992188 C 308.984375 179.339844 306.546875 178.015625 302.410156 178.015625 C 297.371094 178.015625 294.855469 179.871094 294.855469 183.582031 C 294.855469 187.292969 297.371094 189.148438 302.410156 189.148438 C 306.546875 189.148438 308.984375 187.824219 309.726562 185.171875 Z M 322.402344 169.664062 L 351.828125 169.664062 L 351.828125 177.617188 L 332.738281 177.617188 L 332.738281 180.003906 L 351.429688 180.003906 L 351.429688 187.160156 L 332.738281 187.160156 L 332.738281 189.546875 L 351.828125 189.546875 L 351.828125 197.5 L 322.402344 197.5 Z M 322.402344 169.664062 " fill-opacity="1" fill-rule="nonzero"/></g></svg>